# xmcd CD database file
#
# Track frame offsets:
#	150
#	38365
#	95672
#	144616
#
# Disc length: 2500 seconds
#
# Revision: 0
# Processed by: cddbd v1.5.2PL0 Copyright (c) Steve Scherf et al.
# Submitted via: CDex 1.51
#
DISCID=2c09c204
DTITLE=Alan Skidmore - El Skid
DYEAR=1977
DGENRE=Jazz
TTITLE0=Dr. Les Mosses
TTITLE1=First in the attic
TTITLE2=That's for Cha
TTITLE3=K and A Blues
EXTD=YEAR: 1977
EXTT0=
EXTT1=
EXTT2=
EXTT3=
PLAYORDER=
